<?xml version="1.0" encoding="utf-8"?>
<!-- Generator: Adobe Illustrator 25.2.1, SVG Export Plug-In . SVG Version: 6.00 Build 0)  -->
<svg version="1.1" id="Layer_1" xmlns="http://www.w3.org/2000/svg" xmlns:xlink="http://www.w3.org/1999/xlink" x="0px" y="0px"
	 width="4329.4px" height="4329.4px" viewBox="0 0 4329.4 4329.4" style="enable-background:new 0 0 4329.4 4329.4;"
	 xml:space="preserve">
<style type="text/css">
	.st0{fill:#F5F5F5;}
	.st1{fill:#E0E0E0;}
	.st2{opacity:0.3;enable-background:new    ;}
	.st3{fill:#F0F0F0;}
	.st4{fill:#87BC4E;}
	.st5{opacity:0.6;enable-background:new    ;}
	.st6{fill:url(#SVGID_1_);}
	.st7{opacity:0.6;fill:#FFFFFF;enable-background:new    ;}
	.st8{fill:url(#SVGID_2_);}
	.st9{fill:#FF8B7B;}
	.st10{fill:#263238;}
	.st11{fill:#FFFFFF;}
	.st12{opacity:0.2;enable-background:new    ;}
	.st13{fill:url(#SVGID_3_);}
	.st14{opacity:0.5;fill:#FFFFFF;enable-background:new    ;}
	.st15{opacity:0.3;fill:#FFFFFF;enable-background:new    ;}
</style>
<g>
	<path class="st0" d="M3382.7,1227.4l-48.7,388.2l-339.4-339.4L3382.7,1227.4z"/>
	<path class="st0" d="M2601.9,2104.6l686.4-686.4l-100.2-100.3l-586.2,586.3V2104.6z M785.3,2665c19.1,36.7,29.7,77.3,31,118.7
		c1.3,41.4-6.7,82.6-23.5,120.5c-16.8,37.9-41.8,71.5-73.3,98.4c-31.5,26.9-68.7,46.3-108.7,56.9c-45.2,12-92.7,12.2-138.1,0.8
		c-6.3-1.6-12.8-3.5-19-5.6c-27.7-9.2-53.7-22.7-77.2-40c-4.6-3.4-9.2-7-13.5-10.9c-27.8-23.3-50.7-51.8-67.4-84
		c-1.5-3.1-3.1-6.1-4.5-9.3c-18.9-40.1-27.8-84.1-26.1-128.3c1.7-44.2,14-87.4,35.9-125.9c21.9-38.5,52.7-71.2,89.8-95.2
		c37.1-24.1,79.5-38.9,123.6-43.2c6.7-0.7,13.3-1,20-1.2c28.8-0.6,57.5,3.3,85.2,11.6c6.1,1.9,12.1,3.8,18,6
		c21.2,8,41.3,18.5,59.9,31.3c34.3,23.6,62.7,54.6,83.2,90.8C782.1,2659,783.8,2661.9,785.3,2665z"/>
	<path class="st1" d="M740.7,2699.7c-2.8-4.8-5.8-9.5-8.9-14.1c-13.9-20.2-31.1-38-50.8-52.6c-19.8-14.5-41.9-25.6-65.4-32.7
		c-6-2-12.1-3.6-18.2-4.9c-28.7-6.4-58.3-7-87.3-1.7c-7.4,1.3-14.6,3-21.8,5c-30.6,8.8-59,24.2-83.1,45
		c-24.1,20.8-43.5,46.6-56.7,75.6c-13.2,29-20,60.5-19.9,92.4c0.1,31.9,7.1,63.4,20.6,92.3l-4.9-8.9c-27.1-52-32.5-112.7-14.8-168.6
		c8.7-27.7,22.8-53.4,41.5-75.7c18.7-22.3,41.5-40.6,67.3-54.1c25.8-13.4,53.9-21.7,82.8-24.2c28.9-2.5,58.1,0.6,85.8,9.4
		c27.7,8.7,53.4,22.8,75.7,41.5c22.3,18.7,40.6,41.5,54.1,67.3C737.8,2693.6,739.2,2697,740.7,2699.7L740.7,2699.7z"/>
	<path class="st2" d="M642.2,2988.2c-2.3,1.2-4.6,2.4-7,3.5c-2.4,1.2-4.7,2.3-7.2,3.3l-1.7,0.8c-2.7,1.2-5.4,2.2-8,3.2h-1.1
		c-8.6,3.2-17.4,5.9-26.3,8c-2.9,0.7-6,1.4-8.9,1.9c-6,1.2-12,2.1-18.1,2.7l-5.9,0.5h-24.5c-3.2,0-6.2,0-9.3-0.5
		c-3.1-0.6-5.1,0-7.6-0.7l-5-0.7l-4-0.5l-4.6-0.8l-7.5-1.4l-6.4-1.5h-1.4l-9.2-2.4l-8.5-2.7l-5-1.9l-5-1.9l-4.8-2l-5.1-2.3l-4.9-2.3
		l-4.8-2.4c-3.3-1.6-6.5-3.4-9.8-5.3l-3.9-2.3c-3.2-1.9-6.4-4-9.5-6.1l-4.4-3.1c-4.7-3.3-9.3-6.9-13.6-10.9l-3.5-3.1
		c-2.6-2.3-5.1-4.5-7.5-6.9c-2.5-2.4-4.9-4.9-7.3-7.4l-3.3-3.5l-1.5-1.7l-3.4-3.8v-0.7c-1.3-1.4-2.5-2.9-3.6-4.5
		c-1.4-1.6-2.7-3.3-3.9-5c-1.3-1.6-2.5-3.4-3.7-5.1c-1.2-1.7-2-2.7-2.8-4.1l-1.9-2.7l-2.4-3.8l-3.3-5.5
		c-13.4-28.9-20.4-60.4-20.6-92.3c-0.1-31.9,6.7-63.4,19.9-92.4c13.2-29,32.6-54.8,56.7-75.6c24.1-20.8,52.5-36.2,83.1-45
		c7.2-2,14.5-3.7,21.8-5c28.9-5.3,58.6-4.7,87.3,1.8c6.1,1.3,12.2,2.9,18.2,4.9c23.5,7.1,45.6,18.2,65.4,32.7
		c19.8,14.6,36.9,32.3,50.8,52.6c3.2,4.6,6.1,9.3,8.9,14.1c24.1,51.9,27.1,111.2,8.3,165.2C732.2,2917.6,693.2,2962.3,642.2,2988.2
		L642.2,2988.2z"/>
	<path class="st3" d="M642.2,2988.2c-2.3,1.2-4.6,2.4-7,3.5c-2.4,1.2-4.7,2.3-7.2,3.3l-1.7,0.8c-2.7,1.2-5.4,2.2-8,3.2h-1.1
		c-8.6,3.2-17.4,5.9-26.3,8c-2.9,0.7-6,1.4-8.9,1.9c-6,1.2-12,2.1-18.1,2.7h-30.5c-3.2,0-6.2,0-9.3-0.6c-3.1-0.5-5.1,0-7.6-0.7
		l-5-0.7l-4-0.6l-4.6-0.8l-7.5-1.4l-6.4-1.5h-1.4l-9.2-2.4l-8.5-2.7l-5-1.9l-5-1.9l-4.8-2l-5.1-2.3l-4.9-2.3l-4.8-2.4
		c-3.3-1.6-6.5-3.4-9.8-5.4l-3.9-2.3c-3.2-1.9-6.4-4-9.5-6.1l-4.4-3c-4.7-3.3-9.3-6.9-13.6-10.9l-3.5-3c-2.6-2.3-5.1-4.5-7.5-6.9
		c-2.5-2.4-4.9-4.9-7.3-7.4l-3.3-3.5l-1.5-1.7l-3.4-3.8v-0.7c-1.3-1.4-2.5-2.9-3.6-4.5c-1.4-1.6-2.7-3.3-3.9-5
		c-1.3-1.6-2.5-3.4-3.7-5.1c-1.2-1.7-2-2.7-2.8-4.1l-1.9-2.7l-2.4-3.8l-3.3-5.5c-27.2-58.5-27.4-126-0.7-184.7
		c26.8-58.7,77.8-102.8,139.8-120.7c7.2-2,14.5-3.7,21.8-5c28.9-5.2,58.6-4.7,87.3,1.7c6.1,1.3,12.2,3,18.2,4.9
		c23.5,7.1,45.6,18.2,65.4,32.7c19.8,14.6,36.9,32.3,50.8,52.6c3.2,4.6,6.1,9.3,8.9,14.1c24.2,52,27.3,111.3,8.6,165.5
		C732.4,2917.4,693.3,2962.3,642.2,2988.2L642.2,2988.2z"/>
	<path class="st1" d="M625.4,2889.4l16.9,32.7L601,2944l-16.1-31.1c-26.8,12.8-56.2,19.1-85.9,18.7l-4-61.9c27,1.1,53.9-4.8,78-17
		c19.6-10.3,24.4-18,20.8-25c-13.4-25.8-116,54-155.9-22.5c-17.2-32.7-7.6-73.5,36.9-105.3l-16.6-32l41.3-21.8l16.2,31.4
		c21.5-9,44.7-13.5,68.1-13.2l5.2,60.9c-22.6-0.4-45.1,4.6-65.4,14.5c-20.3,10.9-23.7,19.7-20,26.8c12.8,24.7,115.5-54.5,154.9,20.6
		C675.3,2818.4,666.8,2857.8,625.4,2889.4L625.4,2889.4z"/>
	<path class="st0" d="M618.6,2879.2l16.9,32.7l-41.2,21.8l-16.2-31c-26.9,12.6-56.3,19-85.9,18.7l-3.9-61.9
		c26.8,1.1,53.4-4.6,77.4-16.5c19.6-10.3,24.5-18,20.8-25.1c-13.5-26.3-115.9,53.7-155.3-22.7c-17.2-32.7-7.7-73.4,36.9-105.1
		l-16.7-32l41.3-21.8l16.4,31.3c21.4-9.2,44.5-14.1,67.8-14.2l5.3,61c-22.7-0.4-45.1,4.5-65.4,14.5c-20.2,10.9-23.7,19.7-20,26.7
		c12.8,24.6,115.5-54.5,154.9,20.7C668.4,2808.2,660.1,2847.7,618.6,2879.2L618.6,2879.2z M4133.9,1785.4
		c-14.2,51.3-43,97.4-82.9,132.8c-39.9,35.3-89.1,58.4-141.8,66.3c-52.7,8-106.5,0.5-155-21.4c-48.5-22-89.7-57.5-118.4-102.3
		c-3.6-5.6-7-10.9-10.1-17.1c-14-25.7-23.9-53.4-29.3-82.1c-1-5.7-1.9-10.9-2.6-17.1c-4.3-36-1.5-72.4,8.3-107.3
		c0.9-3.3,1.9-6.5,2.9-9.8c13.5-42.3,37-80.6,68.4-111.9c31.5-31.3,70-54.5,112.4-67.7c42.3-13.2,87.3-16,130.9-8.2
		c43.7,7.8,84.8,26,119.9,53.1c5.2,4,10.4,8.3,15.3,12.8c21.6,19.2,40,41.7,54.5,66.6c3.2,5.5,6.2,10.9,9,16.7
		c10,20.2,17.5,41.6,22.4,63.6c5.1,23.1,7.1,46.8,6.1,70.5c-0.8,17.8-3.2,35.5-7.4,52.8C4135.7,1778.9,4134.8,1782.1,4133.9,1785.4
		L4133.9,1785.4z"/>
	<path class="st1" d="M4077.7,1780.3c1.2-5.5,2.3-10.9,3-16.4c3.8-24.2,3.4-49-1.2-73.1c-4.4-24.2-12.9-47.4-25.1-68.8
		c-3.1-5.5-6.4-10.9-9.9-16c-16.6-24.3-37.9-45-62.6-61c-6.2-3.8-12.5-7.5-19.1-10.9c-13.1-6.6-26.8-12-41-15.9
		c-54.7-15.2-113.2-8.8-163.2,18c-50.1,26.7-87.9,71.8-105.7,125.7c0.9-3.3,1.6-6.5,2.5-9.8c15.7-56.4,53.2-104.3,104.2-133
		c51-28.8,111.3-36.1,167.7-20.4c56.4,15.7,104.2,53.2,133,104.2c28.8,51,36.1,111.3,20.4,167.7L4077.7,1780.3L4077.7,1780.3z"/>
	<path class="st2" d="M3808.7,1923.8l-7.5-2.2l-7.5-2.5l-1.9-0.7l-7.8-3.1h-1.2c-8.4-3.5-16.6-7.6-24.5-12.2
		c-2.6-1.5-5.4-3.1-7.9-4.7c-5.2-3.3-10.1-6.8-15.1-10.4l-4.6-3.6l-2.5-2.1l-3.5-3.4c-1.9-1.6-3.7-3.2-5.5-4.9l-6.8-6.4
		c-2.2-2.2-4.4-4.5-6.4-6.8c-2.1-2.3-3.5-3.7-5.1-5.8c-1.6-2.1-2.2-2.5-3.2-3.8l-2.6-3.2l-2.8-3.7c-1.5-2-3.1-4-4.5-6.1
		c-1.4-2.1-2.5-3.6-3.7-5.6l-0.9-1.2l-5-8.1l-4.2-7.7c-0.9-1.6-1.6-3.3-2.4-4.8c-0.8-1.5-1.6-3.3-2.4-4.9c-0.8-1.6-1.4-3-2.2-4.7
		c-0.8-1.6-1.5-3.4-2.2-5.1l-2-5c-0.7-1.6-1.3-3.3-1.9-5c-1.3-3.5-2.5-7-3.6-10.9l-1.3-4.5c-1-3.5-1.9-7.2-2.7-10.9
		c0-1.7-0.8-3.5-1.1-5.2c-1.2-5.7-2.1-10.9-2.8-17v-4.6c0-3.4-0.7-6.8-0.8-10.3v-22.6c0-0.3,0-0.5,0-0.8v-5.7l0.7-6.3
		c0-2.2,0-4.2,0.8-6.3c0.8-2.1,0-3.3,0.8-5c0.8-1.8,0-2.1,0-3.2c0-1.1,0.6-2.9,0.9-4.5l1.3-6.2c17.8-53.9,55.6-98.9,105.7-125.7
		c50.1-26.7,108.5-33.2,163.2-18c14.2,3.9,27.9,9.3,41,15.9c6.5,3.4,12.9,7.1,19.1,10.9c24.7,16,46,36.7,62.6,61
		c3.5,5.1,6.9,10.9,9.9,16c12.2,21.4,20.7,44.6,25.1,68.8c4.6,24.1,5,48.8,1.2,73.1c-0.8,5.5-1.9,10.9-3.1,16.4
		c-17.9,53.8-55.9,98.7-106,125.3C3921.8,1932.8,3863.4,1939.1,3808.7,1923.8z"/>
	<path class="st3" d="M3808.7,1923.8l-7.5-2.2l-7.5-2.5l-1.9-0.7l-7.8-3.1h-1.2c-8.4-3.5-16.6-7.6-24.5-12.2
		c-2.6-1.5-5.4-3.1-7.9-4.7c-5.2-3.3-10.1-6.8-15.1-10.4l-2-1.5c-1-0.7-1.9-1.4-2.7-2.2l-2.5-2.1l-3.4-3.3c-1.9-1.6-3.7-3.2-5.5-4.9
		l-6.8-6.4c-2.2-2.2-4.4-4.5-6.4-6.8c-2.1-2.3-3.5-3.7-5.1-5.8c-1.6-2.1-2.2-2.5-3.2-3.8l-2.6-3.2l-2.8-3.7c-1.5-2-3.1-4-4.5-6.1
		c-1.4-2.1-2.5-3.6-3.7-5.6l-0.9-1.2l-5-8.1l-4.2-7.7c-0.9-1.6-1.6-3.3-2.4-4.8c-0.8-1.5-1.6-3.3-2.4-4.9c-0.8-1.6-1.4-3-2.2-4.7
		c-0.8-1.6-1.5-3.4-2.2-5.1l-2-5c-0.7-1.6-1.3-3.3-1.9-5c-1.3-3.5-2.5-7-3.6-10.9l-1.3-4.5c-1-3.5-1.9-7.2-2.7-10.9
		c0-1.7-0.8-3.5-1.1-5.2c-1.2-5.7-2.1-10.9-2.8-17v-4.6c0-3.4-0.7-6.8-0.8-10.3v-22.6c0-0.3,0-0.5,0-0.8v-5.7l0.7-6.3
		c0-2.2,0-4.2,0.8-6.3c0.8-2.1,0-3.3,0.8-5c0.8-1.8,0-2.1,0-3.2c0-1.1,0.6-2.9,0.9-4.5l1.3-6.2c17.8-53.9,55.6-98.9,105.7-125.7
		c50.1-26.7,108.5-33.2,163.2-18c14.2,3.9,27.9,9.3,41,15.9c6.5,3.4,12.9,7.1,19.1,10.9c24.7,16,46,36.7,62.6,61
		c3.5,5.1,6.9,10.9,9.9,16c12.2,21.4,20.7,44.6,25.1,68.8c4.6,24.1,5,48.8,1.2,73.1c-0.8,5.5-1.9,10.9-3.1,16.4
		c-17.9,53.8-55.9,98.7-106,125.3C3921.8,1932.8,3863.4,1939.1,3808.7,1923.8L3808.7,1923.8z"/>
	<path class="st1" d="M3863.9,1840.1l-9.8,35.2l-44.9-12.4l9.5-33.7c-28.3-9.1-54.2-24.5-75.6-45.1l39.4-48
		c18.8,19.1,42.1,33.2,67.8,40.9c21.8,5.9,30.2,3.6,32.7-4c7.7-28-121.7-39.7-98.2-122.8c10-36,44.5-58.9,98.7-51.7l9.7-34.7
		l44.8,12.5l-9.5,34c22.1,8,42.3,20.4,59.4,36.5l-37.7,48.1c-16.2-15.7-35.8-27.3-57.4-33.9c-21.8-6.1-30.8-1.6-32.7,6
		c-7.4,26.7,121.9,38.7,99,120.8C3948.7,1822.3,3915.6,1845.3,3863.9,1840.1L3863.9,1840.1z"/>
	<path class="st0" d="M3865.9,1828l-9.8,35.2l-44.9-12.4l9.5-33.8c-28.3-9-54.2-24.4-75.6-45l39.5-48c18.7,19.1,42.1,33.2,67.7,40.9
		c21.8,5.9,30.2,3.6,32.7-4c7.7-28-121.6-39.7-98.2-122.8c10-36,44.5-58.9,98.8-51.7l9.6-34.7l44.9,12.5l-9.6,34
		c22.1,8,42.4,20.4,59.6,36.5l-38.5,48c-16.2-15.7-35.8-27.3-57.4-33.9c-21.8-6.1-30.8-1.6-32.7,6c-7.4,26.7,121.9,38.7,99,120.8
		C3950.7,1810.2,3917.6,1833.2,3865.9,1828L3865.9,1828z M1238.7,824.3l-48.9,388.1L850.5,873.2L1238.7,824.3L1238.7,824.3z"/>
	<path class="st0" d="M125.1,2034.4l1019.3-1019.3l-100.2-100.2l-919.1,919.1V2034.4z M540.1,501.9c0,1.9-0.4,3.8-1.1,5.6
		c-0.7,1.8-1.8,3.4-3.2,4.8c-1.4,1.4-3,2.4-4.8,3.2c-1.8,0.7-3.7,1.1-5.6,1.1h-58v58.2c-0.7,7.6-7,13.5-14.7,13.5
		c-7.6,0-14-5.8-14.7-13.5v-58.2h-58.2c-7.9-0.2-14.1-6.6-14.2-14.5c0-8.1,6.5-14.6,14.6-14.6c0,0,0,0,0,0h58.2v-58.8
		c0.7-8.1,7.8-14.1,15.9-13.4c3.2,0.3,6.3,1.6,8.7,3.8c2.7,2.5,4.4,5.9,4.7,9.6v58.2h58.2c3.9,0.1,7.5,1.8,10.1,4.6
		C538.8,494.2,540.3,498,540.1,501.9L540.1,501.9z M3124.9,2555.3c0,3.9-1.6,7.6-4.4,10.3c-2.8,2.7-6.5,4.3-10.4,4.3h-58.3v58.2
		c0.2,2-0.1,4.1-0.7,6c-0.7,1.9-1.7,3.7-3.1,5.2c-1.4,1.5-3.1,2.7-4.9,3.5c-3.8,1.7-8.1,1.7-11.8,0c-3.8-1.7-6.7-4.8-8-8.7
		c-0.7-1.9-0.9-4-0.7-6v-58.2h-58.2c-3.9,0-7.6-1.5-10.4-4.3c-2.8-2.7-4.3-6.5-4.4-10.3c0.1-8.1,6.7-14.6,14.7-14.6h58.2v-58.2
		c0.3-3.7,2-7.1,4.7-9.6c2.7-2.5,6.3-3.9,9.9-3.9c3.7,0,7.2,1.4,10,3.9c2.7,2.5,4.4,5.9,4.7,9.6v58.2h58.2c3.9,0,7.6,1.5,10.4,4.3
		C3123.2,2547.6,3124.8,2551.4,3124.9,2555.3L3124.9,2555.3z"/>
	<path class="st4" d="M3612.2,3636.4c21.9,65.4,26.6,135.3,13.5,203.1c-13.1,67.7-43.5,130.9-88.3,183.4
		c-44.8,52.5-102.3,92.5-167.1,116.1c-64.8,23.6-134.6,30.1-202.6,18.8c-31-5.3-61.3-14.2-90.3-26.5c-8.8-3.8-17.6-7.9-26.1-12.2
		c-37.7-19.3-72-44.5-101.8-74.6c-5.9-5.9-11.6-12-17-18.2c-34.4-39.5-60.7-85.4-77.4-135.1c-1.5-4.7-3.1-9.4-4.4-14.2
		c-18.1-61.5-21.2-126.5-8.9-189.5c12.3-62.9,39.5-122,79.4-172.2c39.9-50.2,91.3-90.1,149.9-116.2c58.6-26.1,122.6-37.8,186.6-34
		c9.7,0.7,19.2,1.5,28.8,2.8c41.3,5.6,81.6,17.5,119.2,35.6c8.2,3.9,16.4,8.2,24.3,12.6c81.4,45.9,144.2,119,177.1,206.5
		C3608.9,3627,3610.5,3631.7,3612.2,3636.4L3612.2,3636.4z"/>
	<path class="st4" d="M3612.2,3636.4c21.9,65.4,26.6,135.3,13.5,203.1c-13.1,67.7-43.5,130.9-88.3,183.4
		c-44.8,52.5-102.3,92.5-167.1,116.1c-64.8,23.6-134.6,30.1-202.6,18.8c-31-5.3-61.3-14.2-90.3-26.5c-8.8-3.8-17.6-7.9-26.1-12.2
		c-37.7-19.3-72-44.5-101.8-74.6c-5.9-5.9-11.6-12-17-18.2c-34.4-39.5-60.7-85.4-77.4-135.1c-1.5-4.7-3.1-9.4-4.4-14.2
		c-18.1-61.5-21.2-126.5-8.9-189.5c12.3-62.9,39.5-122,79.4-172.2c39.9-50.2,91.3-90.1,149.9-116.2c58.6-26.1,122.6-37.8,186.6-34
		c9.7,0.7,19.2,1.5,28.8,2.8c41.3,5.6,81.6,17.5,119.2,35.6c8.2,3.9,16.4,8.2,24.3,12.6c81.4,45.9,144.2,119,177.1,206.5
		C3608.9,3627,3610.5,3631.7,3612.2,3636.4L3612.2,3636.4z"/>
	<path class="st5" d="M3540.6,3675.9c-2.9-7.5-6.1-14.8-9.6-21.8c-30.9-64.5-82.6-116.8-146.8-148.4c-8.2-4-16.5-7.7-25-10.9
		c-39.6-15.5-81.8-22.9-124.3-21.8c-10.6,0.2-21.2,1-31.7,2.3c-21.1,2.7-41.8,7.4-61.9,14.3c-77.8,26.2-142.5,81.4-180.7,154.1
		c-38.2,72.7-47,157.3-24.5,236.2l-4.9-13.7c-13.8-39.8-19.7-82-17.1-124.2c5.2-85.1,44.1-164.5,108.2-220.7
		c31.7-27.8,68.6-49.1,108.6-62.5c40-13.5,82.2-18.8,124.3-15.9c85,6,164.1,45.7,219.6,110.4c27.5,32,48.4,69.1,61.4,109.2
		C3537.8,3666.6,3539.3,3671.3,3540.6,3675.9z"/>
	<path class="st2" d="M3335.4,4066.2c-3.6,1.3-7.2,2.4-10.9,3.5l-10.9,3.1l-2.7,0.8l-12,2.7h-1.7c-13,2.7-26.1,4.5-39.3,5.5
		c-4.5,0-8.8,0.7-13.3,0.7h-26.4l-8.5-0.5h-4.6l-6.8-0.8c-3.5,0-7.1-0.4-10.9-1.3c-4.5-0.7-8.8-1.3-13.3-2.3
		c-4.5-1-8.8-1.7-13.2-2.7c-4.4-1-7.2-1.7-10.9-2.8l-7-2l-5.6-1.6l-6.4-2.2l-10.4-3.7c-3.1-1.1-6-2.3-8.9-3.6l-2-0.8
		c-4.1-1.9-8.4-3.6-12.5-5.6c-4.1-2-7.6-3.7-11.4-5.8h-0.7l-6.9-3.7l-6.7-3.9l-6.4-3.8l-6.9-4.4l-6.4-4.4l-6.3-4.5
		c-4.4-3.2-8.7-6.5-12.9-9.9l-5.1-4.1c-4.1-3.5-8.2-7.1-12.1-10.9l-5.7-5.4c-5.9-5.8-11.6-11.9-17-18.1l-4.4-5.1
		c-3.2-3.8-6.2-7.5-9.3-11.6v-0.6c-2.9-3.9-5.9-8-8.6-12.1l-3.9-5.7l-1.9-2.9c-1.3-2.1-2.6-4.1-3.8-6.2l-0.7-1
		c-1.4-2.3-2.8-4.8-4.1-7.2c-1.3-2.4-3.1-5.3-4.4-8.1c-1.3-2.7-2.9-5.3-4.2-8.1c-1.3-2.7-2.1-4.4-3.2-6.7c-1.1-2.3-1.3-2.8-1.9-4.2
		c-1-2-1.9-4-2.6-6l-3.6-8.6c-22.5-79-13.7-163.6,24.5-236.2c38.2-72.7,102.9-127.8,180.7-154.1c20.1-6.8,40.9-11.6,61.9-14.3
		c10.5-1.3,21.1-2.1,31.7-2.3c42.5-1.1,84.8,6.3,124.3,21.8c8.5,3.3,16.8,7,25,10.9c64.2,31.6,115.9,83.9,146.8,148.4
		c3.5,7.2,6.6,14.5,9.6,21.8c22.5,79,13.8,163.7-24.5,236.4C3478.1,3984.8,3413.3,4040,3335.4,4066.2L3335.4,4066.2z"/>
	<path class="st5" d="M3333.4,3921.1l16.9,50.3l-63.8,21.8l-16.1-48c-41.2,12.2-84.7,14.7-127,7.5l8.2-89.5
		c38,7.7,77.4,5.5,114.4-6.2c30.3-10.1,39-20.2,35.4-31.1c-13.4-39.8-177.9,51.3-217.6-66.9c-17.2-51.1,5.3-106.7,76.3-141.8
		l-16.6-49.4l63.8-21.8l16.4,48.5c32.9-8.4,67.2-10,100.8-4.7l-6.1,88.2c-32.1-5.6-65.1-3.5-96.2,6.2
		c-31.3,10.9-38.2,22.9-34.6,33.7c12.9,38.1,177.4-52.6,216.7,64.2C3420.6,3831.3,3399.5,3885.8,3333.4,3921.1L3333.4,3921.1z"/>
	<path class="st4" d="M3326,3905.1l16.9,50.3l-63.9,21.8l-16.1-48c-41.2,12.1-84.7,14.7-127,7.4l8.3-89.4c38,7.6,77.3,5.4,114.3-6.2
		c30.4-10.3,39.2-20.3,35.4-31.1c-13.4-39.9-177.9,51.3-217.6-67c-17.2-51.2,5.5-106.7,76.3-141.8l-16.8-49.9l63.9-21.8l16.2,48.4
		c32.9-8.4,67.2-10,100.8-4.7l-6.1,88.3c-32.1-5.6-65.1-3.5-96.2,6.1c-31.3,10.9-38.2,22.9-34.5,33.8
		c12.8,38.1,177.3-52.7,216.6,64.2C3413,3814.8,3392.1,3869.2,3326,3905.1z M1440.3,1986.3c-13.6,58.3-40.1,112.7-77.5,159.4
		c-37.5,46.7-84.9,84.3-138.9,110.2c-53.9,25.9-113,39.3-172.9,39.3c-59.8,0-118.9-13.4-172.9-39.3c-32.4-15.5-62.5-35.3-89.4-59
		c-23.7-20.8-44.8-44.2-63-69.9c-5.6-7.9-10.9-15.9-15.7-24.1c-21.9-36.2-38-75.6-47.6-116.8c-1.9-8.2-3.5-16.2-4.9-24.5
		c-8.6-51.7-6.9-104.6,5-155.6c1.1-4.8,2.3-9.6,3.7-14.3c16.8-61.9,48.3-118.9,91.8-166c43.5-47.2,97.7-83.2,158-105
		c60.3-21.8,125-28.8,188.6-20.3c63.6,8.5,124.2,32.2,176.7,69c7.9,5.6,15.5,10.9,22.9,17.4c32.3,26.4,60.3,57.7,82.9,92.8
		c4.9,7.6,9.7,15.5,14.1,23.5c32.5,58.8,49.6,124.8,49.8,191.9c0,25.6-2.5,51.2-7.3,76.3C1442.4,1976.6,1441.4,1981.5,1440.3,1986.3
		L1440.3,1986.3z"/>
	<path class="st4" d="M1440.3,1986.3c-13.6,58.3-40.1,112.7-77.5,159.4c-37.5,46.7-84.9,84.3-138.9,110.2
		c-53.9,25.9-113,39.3-172.9,39.3c-59.8,0-118.9-13.4-172.9-39.3c-32.4-15.5-62.5-35.3-89.4-59c-23.7-20.8-44.8-44.2-63-69.9
		c-5.6-7.9-10.9-15.9-15.7-24.1c-21.9-36.2-38-75.6-47.6-116.8c-1.9-8.2-3.5-16.2-4.9-24.5c-8.6-51.7-6.9-104.6,5-155.6
		c1.1-4.8,2.3-9.6,3.7-14.3c16.8-61.9,48.3-118.9,91.8-166c43.5-47.2,97.7-83.2,158-105c60.3-21.8,125-28.8,188.6-20.3
		c63.6,8.5,124.2,32.2,176.7,69c7.9,5.6,15.5,10.9,22.9,17.4c32.3,26.4,60.3,57.7,82.9,92.8c4.9,7.6,9.7,15.5,14.1,23.5
		c32.5,58.8,49.6,124.8,49.8,191.9c0,25.6-2.5,51.2-7.3,76.3C1442.4,1976.6,1441.4,1981.5,1440.3,1986.3L1440.3,1986.3z"/>
	<path class="st5" d="M1358.6,1982.4c1.4-7.8,2.6-15.8,3.4-23.8c7.4-71.2-9.4-142.8-47.6-203.3c-4.8-7.8-9.9-15.3-15.4-22.6
		c-25.5-34-57.6-62.6-94.3-84c-9.2-5.3-18.6-10.2-28.3-14.6c-41.9-19.1-87.5-28.9-133.5-28.8c-46.1,0.2-91.6,10.3-133.3,29.7
		c-41.8,19.4-78.9,47.6-108.7,82.7c-29.8,35.1-51.7,76.3-64.1,120.6c1-4.8,2-9.6,3.1-14.4c21.2-80.2,72.8-149.1,143.9-191.9
		c71.1-42.8,156-56.3,236.9-37.5c80.8,18.7,151.2,68.2,196.2,138c45,69.7,61,154.3,44.7,235.6
		C1361.2,1973,1359.8,1977.8,1358.6,1982.4L1358.6,1982.4z"/>
	<path class="st2" d="M979.1,2207c-3.7-0.8-7.3-1.7-10.9-2.7l-10.9-3.2l-2.7-0.9l-11.7-3.9l-1.6-0.7c-12.4-4.6-24.5-9.9-36.3-15.9
		c-3.9-2.1-7.9-4.1-11.7-6.4c-7.7-4.4-15.2-8.9-21.8-14l-6.9-4.9l-3.8-2.8l-5.3-4.1c-2.7-2.1-5.5-4.3-8.2-6.7
		c-2.7-2.4-6.9-5.8-10.1-8.9c-3.3-3.2-6.7-6.1-9.8-9.3c-3.2-3.2-5.1-5.2-7.6-8c-2.5-2.7-3.4-3.5-4.9-5.3c-1.5-1.9-2.6-2.9-3.9-4.4
		l-4.4-5.2l-6.9-8.6c-2-2.5-3.9-5-5.7-7.6l-1.3-1.7c-2.6-3.7-5.2-7.5-7.7-10.9c-2.5-3.4-4.6-7.2-6.8-10.9v-0.5
		c-1.3-2.2-2.6-4.5-3.8-6.8c-1.2-2.3-2.5-4.6-3.7-6.9l-3.5-6.7c-1.1-2.4-2.4-4.8-3.5-7.2l-3.2-7.2c-1.1-2.3-2.1-4.7-3.1-7.1
		c-2.1-4.9-3.9-9.9-5.8-15.2l-2.2-6.2c-1.7-5.1-3.3-10.4-4.6-15.5c-0.8-2.6-1.4-5.1-2.1-7.6c-2-8.1-3.6-16.1-5-24.3l-1-6.5
		c-0.8-4.9-1.3-9.8-1.9-14.7v-0.8c0-4.9-0.9-9.9-1.1-14.8v-37c0-3.1,0-6.1,0.7-9.1c0.7-2.9,0-4.9,0.9-7.3c0.9-2.4,0-3.2,0-4.7
		c0-1.5,0.5-4.3,0.9-6.4c0.3-2.2,1-6.1,1.5-9.2c12.4-44.4,34.3-85.5,64.1-120.6c29.8-35.1,66.9-63.3,108.7-82.7
		c41.8-19.4,87.3-29.5,133.3-29.7c46.1-0.2,91.6,9.7,133.5,28.8c9.7,4.4,19.1,9.3,28.3,14.6c36.7,21.4,68.8,50,94.3,84
		c5.5,7.3,10.6,14.8,15.4,22.6c38,60.6,54.6,132.2,47.1,203.3c-0.8,8-2,15.9-3.4,23.8c-22.3,79.2-74.2,146.7-145,188.6
		C1143.4,2212.7,1059.2,2225.6,979.1,2207L979.1,2207z"/>
	<path class="st5" d="M1053.6,2082.6l-12,51.6l-65.2-15.2l10.9-49.3c-41.4-11.1-79.6-31.6-111.9-59.8l53.9-71.9
		c28.4,26.4,63,45.2,100.7,54.5c31.2,7.3,43.6,3.4,46.5-7.9c9.5-40.9-178.3-49.6-150.2-171.1c12.2-52.6,60.6-87.9,139.4-80.9
		l11.8-50.8l65.4,15.3l-11.6,49.8c32.4,10.1,62.5,26.7,88.2,48.9l-51.5,71.9c-24.4-21.5-53.6-37-85.2-45.1
		c-32.1-7.5-44.5-0.6-47.1,10.9c-9.1,39.1,178.7,48.3,150.8,168.4C1175.1,2051.4,1129.1,2086.3,1053.6,2082.6L1053.6,2082.6z"/>
	<path class="st4" d="M1055.7,2064.5l-12,51.7l-65.4-15.3l10.9-49.3c-41.5-11.3-79.8-31.9-112-60.3l53.9-71.9
		c28.4,26.4,63,45.2,100.7,54.5c31.2,7.2,43.6,3.3,46.5-7.8c9.5-41-178.3-49.7-150.2-171.2c12.2-52.6,60.6-87.9,139.4-80.9
		l11.8-50.7l65.4,15.2l-11.6,49.8c32.4,10.1,62.5,26.7,88.2,48.9l-51.5,72c-24.4-21.6-53.6-37.1-85.2-45.3
		c-32.1-7.4-44.5,0-47.1,10.9c-9.1,39,178.6,48.2,150.8,168.3C1177.2,2033.7,1130.7,2069.1,1055.7,2064.5L1055.7,2064.5z"/>
	<path class="st4" d="M1212.3,2904.9l117.6,117.7L216.4,4135.9H417l1013.2-1013l121.5,121.4l48.9-388.3L1212.3,2904.9z"/>
	<linearGradient id="SVGID_1_" gradientUnits="userSpaceOnUse" x1="216.4458" y1="3495.9746" x2="1600.5487" y2="3495.9746">
		<stop  offset="0" style="stop-color:#CADB2A"/>
		<stop  offset="1" style="stop-color:#87BC4E"/>
	</linearGradient>
	<path class="st6" d="M1212.3,2904.9l117.6,117.7L216.4,4135.9H417l1013.2-1013l121.5,121.4l48.9-388.3L1212.3,2904.9z"/>
	<path class="st4" d="M1683.1,828.5l31.7-9.1l-20.3-70.5l-36.6,10.9c-10.5-11.9-23.7-21.1-38.4-26.9v-37.1h-73.3V733
		c-11.5,4.6-22.1,11.2-31.2,19.5l-32.7-15.7l-32.1,65.4l32.2,15.7v8c0,17.1,4.4,34,12.8,49l-24.1,30.2l57.3,45.7l23.4-29.3
		c10,3.3,20.5,4.9,31.1,4.9c7.7,0,15.4-0.9,22.9-2.7l21.2,29.8l59.8-42.4l-20.6-29C1676.8,866.1,1682.7,847.6,1683.1,828.5
		L1683.1,828.5z M1516.9,825.9c0-12.9,3.8-25.5,11-36.3c7.2-10.7,17.4-19.1,29.3-24.1c11.9-5,25.1-6.3,37.7-3.8
		c12.7,2.5,24.3,8.7,33.5,17.8c9.2,9.1,15.5,20.7,18,33.4c2.6,12.7,1.4,25.8-3.5,37.8c-10,24.5-33.7,40.5-60.1,40.8
		c-17.4,0-34.1-6.9-46.4-19.2C1524.1,859.9,1517.1,843.3,1516.9,825.9L1516.9,825.9z"/>
	<path class="st7" d="M1683.1,828.5l31.7-9.1l-20.3-70.5l-36.6,10.9c-10.5-11.9-23.7-21.1-38.4-26.9v-37.1h-73.3V733
		c-11.5,4.6-22.1,11.2-31.2,19.5l-32.7-15.7l-32.1,65.4l32.2,15.7v8c0,17.1,4.4,34,12.8,49l-24.1,30.2l57.3,45.7l23.4-29.3
		c10,3.3,20.5,4.9,31.1,4.9c7.7,0,15.4-0.9,22.9-2.7l21.2,29.8l59.8-42.4l-20.6-29C1676.8,866.1,1682.7,847.6,1683.1,828.5
		L1683.1,828.5z M1516.9,825.9c0-12.9,3.8-25.5,11-36.3c7.2-10.7,17.4-19.1,29.3-24.1c11.9-5,25.1-6.3,37.7-3.8
		c12.7,2.5,24.3,8.7,33.5,17.8c9.2,9.1,15.5,20.7,18,33.4c2.6,12.7,1.4,25.8-3.5,37.8c-10,24.5-33.7,40.5-60.1,40.8
		c-17.4,0-34.1-6.9-46.4-19.2C1524.1,859.9,1517.1,843.3,1516.9,825.9L1516.9,825.9z"/>
	<path class="st4" d="M3262.1,2208.9l31.6-9.1l-20.2-69.9l-36.6,10.9c-10.5-11.9-23.6-21.1-38.4-26.9v-38.5h-73.6v37.1
		c-11.5,4.5-22.1,11.2-31.2,19.5l-32.7-15.7l-32.1,65.4l32.7,15.7v8c-0.1,17.2,4.3,34,12.8,49l-24.2,30.2l57.4,45.7l23.5-29.3
		c10,3.2,20.5,4.9,31.1,4.9c7.7,0,15.4-0.9,22.9-2.7l21.2,29.8l59.8-42.4l-21-28.2C3255.6,2246.5,3261.6,2227.9,3262.1,2208.9
		L3262.1,2208.9z M3095.9,2206.3c0.2-26.4,16.2-50,40.6-60c11.9-4.9,25-6.1,37.7-3.6c12.6,2.5,24.3,8.8,33.4,17.9
		c9.1,9.1,15.3,20.7,17.9,33.4c2.5,12.6,1.3,25.8-3.6,37.7c-4.9,11.9-13.2,22.2-23.9,29.4c-18.1,12.3-41.2,14.7-61.5,6.4
		c-16.2-6.7-29.1-19.5-35.8-35.8C3097.5,2223.6,3095.8,2214.9,3095.9,2206.3L3095.9,2206.3z"/>
	<path class="st7" d="M3262.1,2208.9l31.6-9.1l-20.2-69.9l-36.6,10.9c-10.5-11.9-23.6-21.1-38.4-26.9v-38.5h-73.6v37.1
		c-11.5,4.5-22.1,11.2-31.2,19.5l-32.7-15.7l-32.1,65.4l32.7,15.7v8c-0.1,17.2,4.3,34,12.8,49l-24.2,30.2l57.4,45.7l23.5-29.3
		c10,3.2,20.5,4.9,31.1,4.9c7.7,0,15.4-0.9,22.9-2.7l21.2,29.8l59.8-42.4l-21-28.2C3255.6,2246.5,3261.6,2227.9,3262.1,2208.9
		L3262.1,2208.9z M3095.9,2206.3c0.2-26.4,16.2-50,40.6-60c11.9-4.9,25-6.1,37.7-3.6c12.6,2.5,24.3,8.8,33.4,17.9
		c9.1,9.1,15.3,20.7,17.9,33.4c2.5,12.6,1.3,25.8-3.6,37.7c-4.9,11.9-13.2,22.2-23.9,29.4c-18.1,12.3-41.2,14.7-61.5,6.4
		c-16.2-6.7-29.1-19.5-35.8-35.8C3097.5,2223.6,3095.8,2214.9,3095.9,2206.3L3095.9,2206.3z"/>
	<linearGradient id="SVGID_2_" gradientUnits="userSpaceOnUse" x1="857.2894" y1="3177.5071" x2="4035.5593" y2="3177.5071">
		<stop  offset="0" style="stop-color:#CADB2A"/>
		<stop  offset="1" style="stop-color:#87BC4E"/>
	</linearGradient>
	<path class="st8" d="M4035.6,2219.1l-48.9,388.2l-115.1-115.1L2734.5,3629.3h-1170l-506.7,506.6H857.3l648.4-648.4h1170.1
		l1095.5-1095.6L3647.4,2268L4035.6,2219.1z"/>
	<path class="st9" d="M2442.8,3248.1v162.2l65.4,5.2l32.1-151.8L2442.8,3248.1z"/>
	<path class="st10" d="M2489.3,3400.3c0,0,20.6-39.6,32.7-35.3c12.1,4.2,17.1,52.2,17.1,52.2s65.4,21.8,84.4,23.2
		c19,1.4,33.4,11.6,35.8,47.7h-225.4c0,0,1.5-81.4,2-95.3c0.4-14,20.3,3.5,20.3,3.5L2489.3,3400.3L2489.3,3400.3z"/>
	<path class="st11" d="M2436.4,3423.6c4.1,2.2,7.6,5.2,10.5,8.9c2.8,3.6,4.9,7.8,6.1,12.3s1.4,9.1,0.7,13.7
		c-0.7,4.6-2.4,8.9-4.8,12.8c-0.1,0.2-0.2,0.4-0.3,0.7c-0.1,0.2-0.1,0.5,0,0.7c0.1,0.5,0.4,0.9,0.8,1.2c0.2,0.1,0.4,0.2,0.7,0.2
		c0.2,0,0.5,0,0.7,0c0.2-0.1,0.4-0.2,0.6-0.3c0.2-0.1,0.3-0.3,0.4-0.6c2.7-4.3,4.6-9,5.4-14c0.8-5,0.6-10.1-0.6-15
		c-1.2-4.9-3.4-9.5-6.5-13.5c-3.1-4-6.9-7.4-11.3-9.9c-1.9-1.1-4,2-2.2,3L2436.4,3423.6L2436.4,3423.6z"/>
	<path class="st11" d="M2436.1,3475.1l176.8,1.9h41.1c2.3,0,2.8-3.6,0.5-3.6l-176.9-1.9h-41.1c-2.3,0-2.7,3.6,0,3.6H2436.1
		L2436.1,3475.1z M2529.4,3431.3c1.7-2.6,3.9-4.8,6.5-6.6c2.6-1.7,5.5-2.9,8.6-3.5c3.1-0.6,6.2-0.5,9.2,0.2c3,0.7,5.9,2,8.4,3.9
		c1.6,1.4,3.8-1.7,2.2-3.1c-11.6-9.5-27.4-5.5-38,7.1c-1.5,1.9,1.3,3.7,2.9,1.9H2529.4z"/>
	<path class="st11" d="M2548.1,3437.1c1.7-2.6,3.9-4.8,6.5-6.5c2.6-1.7,5.5-2.9,8.6-3.4c3.1-0.5,6.2-0.5,9.2,0.3
		c3,0.7,5.9,2,8.4,3.9c1.7,1.4,3.9-1.7,2.2-3c-11.6-9.6-27.4-5.5-38,7.1c-1.5,1.9,1.3,3.6,2.9,1.7L2548.1,3437.1L2548.1,3437.1z"/>
	<path class="st11" d="M2567.4,3443c1.7-2.6,3.9-4.8,6.5-6.5c2.6-1.7,5.5-2.9,8.6-3.4c3.1-0.5,6.2-0.4,9.2,0.3c3,0.7,5.9,2,8.4,3.9
		c1.7,1.3,3.9-1.7,2.2-3.2c-11.6-9.5-27.4-5.3-37.8,7.2c-1.6,1.9,1.2,3.6,2.8,1.7H2567.4L2567.4,3443z"/>
	<path class="st10" d="M2403.5,1640.9c1.9,28.9-2.1,117.8,1.9,165.4c7.3,91,17.2,208.9,25.1,327.2c9.2,136.8,15.7,273.6,12.4,368.7
		c-8.4,244-6.5,797-6.5,797h105.9c0,0,124.3-549.7,147.6-797c19.4-205.1,9.2-733.5,5.9-861.6L2403.5,1640.9L2403.5,1640.9z"/>
	<path class="st12" d="M2405.1,1806.3c7.3,91,17.2,208.9,25.1,327.2c52.1-154.2,3.7-387.3,3.7-387.3L2405.1,1806.3L2405.1,1806.3z"
		/>
	<path class="st4" d="M2427.1,3302.8h124.2l9.1-39.6l-136.5-1.6L2427.1,3302.8L2427.1,3302.8z"/>
	<path class="st9" d="M1858.4,3217.9l-24.8,160.2l63.9,15.2l54.9-145.2L1858.4,3217.9L1858.4,3217.9z"/>
	<path class="st10" d="M1881.6,3375.3c0,0,26.4-35.9,37.7-29.9c11.3,6,8.9,54.5,8.9,54.5s61.8,31.8,79.9,35.9
		c18.1,4,31.2,16.6,28,52.6l-222.8-34.5c0,0,14-80.2,16.5-93.9c2.5-13.7,19.5,6.5,19.5,6.5L1881.6,3375.3L1881.6,3375.3z"/>
	<path class="st11" d="M1825.2,3390.3c3.6,2.8,6.6,6.3,8.9,10.4c2.2,4,3.6,8.5,4,13c0.4,4.6,0,9.2-1.4,13.6
		c-1.4,4.4-3.7,8.4-6.7,11.9c-1.4,1.9,1.1,4.1,2.6,2.2c6.8-7.6,10.1-17.7,9.2-27.9c-0.4-5-1.9-9.9-4.3-14.4
		c-2.4-4.4-5.7-8.4-9.7-11.5C1826.2,3386.2,1823.6,3388.9,1825.2,3390.3L1825.2,3390.3z"/>
	<path class="st11" d="M1817,3441.2l174.5,28.8l40.6,6.7c2.3,0,3.3-3.1,1-3.4l-174.5-28.9l-40.6-6.6
		C1815.7,3437.7,1814.7,3440.7,1817,3441.2L1817,3441.2z M1916,3412.2c2.1-2.3,4.6-4.2,7.5-5.5c2.8-1.3,5.9-2,9.1-2.1
		c3.1-0.1,6.2,0.5,9.1,1.7c2.9,1.2,5.5,2.9,7.7,5.2c1.4,1.6,4-1.1,2.6-2.7c-2.6-2.5-5.7-4.5-9-5.8c-6.8-2.6-14.3-2.4-21,0.7
		c-3.3,1.5-6.2,3.6-8.6,6.3C1911.5,3411.5,1914.1,3413.8,1916,3412.2z"/>
	<path class="st11" d="M1933.5,3420.8c2.1-2.3,4.6-4.2,7.5-5.5c2.8-1.3,5.9-2,9.1-2.1c6.3-0.1,12.4,2.3,16.9,6.8
		c1.4,1.6,4-1.1,2.6-2.7c-10-10.9-26.3-9.5-38.6,1.3C1929,3420.2,1931.7,3422.4,1933.5,3420.8L1933.5,3420.8z"/>
	<path class="st11" d="M1951.6,3429.5c2.1-2.3,4.7-4.2,7.5-5.5c2.9-1.3,5.9-2,9.1-2.1c6.3-0.1,12.4,2.4,16.9,6.9
		c1.4,1.5,4-1.2,2.6-2.7c-10-10.9-26.3-9.6-38.6,1.2C1947.2,3429,1949.9,3431.1,1951.6,3429.5L1951.6,3429.5z"/>
	<path class="st10" d="M2231.1,2523.4c-65.4,239.9-285.3,758-285.3,758l-104.4-18.1c0,0,109.1-539.4,158.8-778.3
		c45.1-215.6,94.8-710.9,110.8-858.3l350.1,31.5C2442.5,1784.5,2285.5,2324.6,2231.1,2523.4L2231.1,2523.4z"/>
	<path class="st4" d="M1831.8,3265.4l122.5,21.4l15.7-37.5l-136.3-24.9L1831.8,3265.4L1831.8,3265.4z"/>
	<path class="st11" d="M2090.7,1626.7c-1.4,15.4,30,49.9,45.4,50.6l543.5,9.5c16.4,0.8,35.6-10.9,35-26.8
		c-5.6-192.7-50.5-855.6-65.4-897.4c-18.7-51.4-122-69.9-167.2-73.9c-71.3-4.8-142.9-4.8-214.2,0c-34.8,1.6-66.5,4.7-92.9,8
		c-19.2,2.4-36.6,12.4-48.2,27.9c-5.7,7.6-9.9,16.4-12.2,25.7c-2.3,9.3-2.7,18.9-1.2,28.4c11.7,73.8,19.4,148.1,22.9,222.7v10.9
		c1.2,25.1,2.4,49.8,2.5,74.4v14.6C2136.7,1350.1,2104.3,1472.4,2090.7,1626.7L2090.7,1626.7z"/>
	<linearGradient id="SVGID_3_" gradientUnits="userSpaceOnUse" x1="2042.0271" y1="1193.7886" x2="2731.834" y2="1193.7886">
		<stop  offset="0" style="stop-color:#CADB2A"/>
		<stop  offset="1" style="stop-color:#87BC4E"/>
	</linearGradient>
	<path class="st13" d="M2306.9,1689.3c-72.6,4.5-264.9,0-264.9-30.3c0-50.6,69.1-400.6,75.7-470.6c1-10.9,2-25.2,3.1-42.5
		c1.9-32.7,3.7-74,5.5-119c5.3-140,9.7-310.2,9.7-310.2s4.3-38.5,173.3-30.3c0,0,42.1,205.5,43.6,386.3
		C2354.4,1253.5,2331.7,1687.8,2306.9,1689.3L2306.9,1689.3z M2481.4,688.7c0,0,74.5,197.1,66.3,495.6
		c-8.2,298.5-11.9,515.9-11.9,515.9s178.4,10.9,194-15.6c8.4-14.5-12.2-274.8-24-427.4c-13.4-173.7-40.3-459-50.5-493.3
		C2638.2,704.6,2481.4,688.7,2481.4,688.7z"/>
	<path class="st4" d="M3365.7,639.8c-52.3,46-105.8,90.2-161.1,132.7c-27.5,21.8-55.6,42.1-84.3,62.7c-14.4,10.3-29,20.2-44.2,30.2
		c-15.2,10-30.4,19.7-49.6,29.7c-11.8,6.2-24.3,10.9-37.2,14.2c-11.5,2.7-23.1,4.7-34.9,5.8c-20.1,1.9-40.3,2.6-60.4,1.9
		c-36.9-1.6-73.7-5.3-110.2-10.9c-30.9-4.5-61.1-9.9-91.1-16.1l-20.8-4.5c-32.7-7.1-64.6-15.3-97.1-24.4l32.1-141.8
		c33.3,11.9,67.5,21,102.3,27.4c32.7,7.3,65.4,14.2,97.6,20.2c32.2,6,64.5,10.9,95,14.1c14.2,1.5,28.5,2.2,42.9,2.1
		c5.4-0.1,10.9-0.5,16.2-1.2c3.8-0.5,7.5-1.5,10.9-3.1c12.1-4.8,26.9-12.2,41.2-19.6c14.3-7.4,29.1-15.8,43.6-23.9
		c29.6-16.1,59-33.5,88.7-50.4c59.1-34.4,119-68.8,178.9-102.6L3365.7,639.8L3365.7,639.8z"/>
	<path class="st12" d="M2692.8,890.3l-20.8-4.5l-10.9-77.4L2692.8,890.3L2692.8,890.3z"/>
	<path class="st9" d="M3450.1,504.9c0,0,9.7,32.1,2.5,49.1c-7.2,17-41.2,25.5-41.2,25.5S3430.3,526.7,3450.1,504.9L3450.1,504.9z"/>
	<path class="st12" d="M3450.1,504.9c0,0,9.7,32.1,2.5,49.1c-7.2,17-41.2,25.5-41.2,25.5S3430.3,526.7,3450.1,504.9L3450.1,504.9z"
		/>
	<path class="st9" d="M3446.5,535c-12.4,11.5-22.7,25.1-30.4,40.2c16.1,5.3,42.3-7.7,48.2-1.2c5.9,6.5-10.9,17.7-37.2,30.8
		c-13.9,6.7-18.7,22.5-37.1,28.9c-7.9,2.8-16.1,4.9-24.3,6.4c-20.3-7.6-42.2-57.6-42.2-57.6l48.4-37c0,0,44.6-33.9,63.5-40.7
		c18.9-6.8,68.1-38.8,71.4-30.6C3511.6,485.7,3478.1,511.7,3446.5,535L3446.5,535z"/>
	<path class="st12" d="M2217.4,906.8l-96.5,239.1c1.9-32.7,3.7-74,5.5-119L2217.4,906.8z"/>
	<path class="st10" d="M2487.9,315.6c-19.8-5.1-40.3-6-60.5-2.7c-20.1,3.2-39.4,10.6-56.5,21.6c-22.5,14.7-41.2,35.8-37.8,64
		c9.2,58.8,21.8,117.1,37.5,174.5l212.9-129.9c0,0,31.7-38.8-17.7-90.5C2549.8,336.3,2517.4,322.9,2487.9,315.6z"/>
	<path class="st9" d="M2468,726.3c-3.1-13.6-3.8-27.7-2.2-41.6l10.4-38.1v-0.8l-61.8-67.6l-42.5-46.8
		c2.4,49.2-12.5,109.1-30.3,160.3C2344.7,714.6,2451.9,775.7,2468,726.3z"/>
	<path class="st12" d="M2476.2,646.7l-10.4,38.1c-23.5-10.9-47.9-34.2-53.3-59.3c-3.8-18.1,4.5-34.9,11.8-35.8L2476.2,646.7
		L2476.2,646.7z"/>
	<path class="st9" d="M2572,567.6c-2.3,8.3-4.9,16.4-7.6,24.4c-24.2,70.9-111.9,76.3-166.1,23.9c-4.9-4.8-9.4-9.9-13.5-15.4
		c-34.4-45.9-25.4-80.9-19.5-160.4c1.2-18.4,7.2-36.3,17.2-51.8c10-15.5,23.9-28.3,40.2-37c33.1-17.7,73.1-17.2,105.7,1.5
		C2594.3,390.7,2594.9,484.8,2572,567.6L2572,567.6z"/>
	<path class="st10" d="M2424.6,388.8c0,0,77,57.7,166.4,31.4c45.4-13.3,37.7-106.3,2.1-124.3c-29.1-14.7-52.8,21-52.8,21
		c-29.2-16-62.4-23.1-95.5-20.6c-60,2.6-84.8,37.2-84.8,37.2c-9-0.2-17.9,2.6-25.1,7.9c-7.3,5.4-12.5,13-14.9,21.7
		c-8.1,27.4,21.8,79.6,21.8,79.6L2424.6,388.8L2424.6,388.8z M2492.3,482.1c-0.9,6.2,1.7,11.7,5.8,12.2c4,0.5,8.1-4,8.9-10.3
		s-1.7-11.7-5.9-12.2C2497,471.3,2493.2,475.9,2492.3,482.1z M2521.7,581.2h2.2c0.6-0.1,1.2-0.4,1.6-0.9c0.4-0.5,0.6-1.1,0.5-1.7
		c0-0.3-0.1-0.6-0.3-0.9c-0.1-0.3-0.3-0.5-0.6-0.7c-0.5-0.4-1.1-0.6-1.8-0.5c-4.6,0.4-9.3-0.1-13.7-1.6c-4.4-1.4-8.5-3.8-11.9-6.8
		c-3.5-3.1-6.3-6.8-8.3-11c-2-4.2-3.1-8.7-3.3-13.3c0-0.3-0.1-0.6-0.3-0.9c-0.1-0.3-0.3-0.5-0.6-0.7c-0.2-0.2-0.5-0.3-0.8-0.4
		c-0.3-0.1-0.6-0.1-0.9-0.1c-0.6,0.1-1.2,0.4-1.6,0.9c-0.4,0.5-0.6,1.1-0.5,1.7c0.6,10.2,5.1,19.7,12.6,26.6
		C2501.6,577.9,2511.5,581.6,2521.7,581.2L2521.7,581.2z"/>
	<path class="st10" d="M2364,447.3c0,0,24,1.3,24.9,21.8c0.9,20.5-1.2,23.2-1.2,23.2l29.1,2.1c0,0-16.4-61.4,4.3-60.3
		c20.6,1.1-9.5-44.2,19-52.2c30.4-8.6,109.1-12.2,139.7,36c-5.8-29.2-22-55.2-45.7-73.2c-37.7-25.7-113.9-31.5-144.8,5.8
		C2358.2,387.8,2364,447.3,2364,447.3L2364,447.3z"/>
	<path class="st9" d="M2323.9,487.9c3,19.9,13.8,37.7,29.9,49.7c21.8,15.6,41.4-1.4,43.6-26.6c1.5-22.6-7.7-57.9-32.7-63.6
		c-11.3-2.3-22.9,1.3-31,9.4c-4,4-6.9,9-8.5,14.4c-1.6,5.4-1.8,11.2-0.6,16.7"/>
	<path class="st10" d="M2556.4,489.5c-0.9,6.2,1.8,11.7,5.8,12.2c4,0.5,8.1-4,8.9-10.3c0.9-6.2-1.9-11.7-5.9-12.2
		C2561.2,478.7,2557.1,483.3,2556.4,489.5L2556.4,489.5z M2579.6,474.4c-1.1-0.2-1.9-1-2.3-2.1c-0.4-2.3-1.4-4.5-2.8-6.3
		c-1.4-1.9-3.1-3.4-5.2-4.6c-4.1-1.8-8.7-2-13-0.8c-1.2,0.4-2.6,0.1-3.4-0.9c-0.3-0.3-0.5-0.7-0.6-1.1c-0.2-0.8-0.2-1.7,0.2-2.4
		c0.4-0.7,1-1.3,1.8-1.6c5.9-1.8,12.3-1.4,17.9,1.1c2.7,1.5,5,3.5,6.9,5.9c1.9,2.4,3.2,5.2,4,8.2c0.1,0.4,0.2,0.8,0.1,1.2
		c0,0.4-0.1,0.8-0.3,1.2c-0.2,0.4-0.5,0.7-0.8,1c-0.3,0.3-0.7,0.5-1.1,0.6C2580.6,474.1,2580.1,474.3,2579.6,474.4z M2475.9,464.4
		c-0.4,0.1-0.9,0.1-1.3,0c-0.4-0.2-0.7-0.4-1-0.7c-0.3-0.3-0.5-0.6-0.7-1c-0.2-0.4-0.2-0.8-0.2-1.2c0-0.4,0.1-0.8,0.3-1.2
		c2.7-5.6,7.2-10,12.9-12.4c5.9-2,12.4-1.4,17.9,1.5c0.4,0.2,0.7,0.4,1,0.7c0.3,0.3,0.5,0.7,0.7,1.1c0.1,0.4,0.2,0.8,0.2,1.2
		c0,0.4-0.1,0.8-0.3,1.2c-0.2,0.4-0.4,0.7-0.8,1c-0.6,0.6-1.5,0.8-2.3,0.8c-0.4,0-0.8-0.1-1.2-0.3c-2-1.1-4.1-1.7-6.3-1.9
		c-2.2-0.2-4.4,0-6.6,0.7c-4.1,1.8-7.5,5-9.4,9.1c-0.3,0.5-0.7,0.9-1.2,1.1C2477,464.3,2476.4,464.5,2475.9,464.4z"/>
	<path class="st4" d="M2118.8,733.9c-36.8,63.9-71.3,129.1-105,194.7c-17,32.7-33.5,65.4-50.2,98.2l-24.5,49.1l-12.2,24l-6.1,11.7
		l-2.8,5.5c-0.7,1.4-1.4,2.8-2,4.3l-1.6,3.9l-1.2,3.1l-2,5.8l-1.5,5.1c-3.7,12.9-5.7,23-7.6,33.3c-2,10.3-3.5,19.8-5,29.6
		c-2.9,19.3-5.5,38.1-7.5,56.9c-4.3,37.6-8,74.8-10.9,112.1c-5.7,74.5-9.7,148.7-10.9,223.5c-0.1,10.2,3.5,20.2,10.2,27.9
		c6.7,7.8,16,12.8,26.2,14.1c10.2,1.3,20.5-1.1,28.9-6.8c8.5-5.7,14.6-14.4,17.1-24.3c17.8-71.6,33.9-143.9,50.2-215.4
		c8.4-35.7,16.2-71.4,24.8-106.6c4.4-17.6,8.5-35,13-51.8c2.2-8.5,4.5-16.8,6.9-24.5c2-6.9,4.3-13.6,7-20.3c0.2-0.5,0.4-1,0.7-1.4
		v-0.7v1.9c-0.3,0.8-0.8,1.6-1.2,2.4l1.1-1.7l2.2-3.4l4.3-6.6l15-24.3l29.1-47.7c19-32,38-63.8,56.3-95.9
		c37-64.1,72.9-128.7,106.4-194.7c17.6-39.9,1.7-86.6-36.5-107.5c-18.4-10.1-40-13-60.4-8c-20.4,5-38.2,17.4-49.9,34.9L2118.8,733.9
		L2118.8,733.9z"/>
	<path class="st10" d="M1774.7,1802.7v-68.4c0-2.4,1.9-4.3,4.3-4.3h37.2v-10.9h-37.1c-4,0-7.9,1.6-10.8,4.5
		c-2.9,2.9-4.5,6.8-4.5,10.8v68.3H1774.7L1774.7,1802.7z M2031.1,1733.8v68.9h10.9v-68.4c0-4-1.6-7.9-4.5-10.8
		c-2.9-2.9-6.8-4.5-10.8-4.5h-37.1v10.9h37.1c1.1,0,2.1,0.4,2.9,1.1C2030.5,1731.8,2031,1732.8,2031.1,1733.8L2031.1,1733.8z"/>
	<path class="st10" d="M2187.5,1831.1v344.6c0,7.7-3.1,15.1-8.5,20.5c-5.4,5.4-12.8,8.5-20.5,8.5h-497.4c-7.7,0-15-3.1-20.5-8.5
		c-5.4-5.4-8.5-12.8-8.5-20.5v-344.6c0-7.7,3.1-15,8.5-20.4c5.4-5.4,12.8-8.5,20.5-8.5h497.4c3.8,0,7.6,0.7,11.1,2.2
		c3.5,1.4,6.7,3.6,9.4,6.3c2.7,2.7,4.8,5.9,6.3,9.4C2186.8,1823.5,2187.5,1827.3,2187.5,1831.1z"/>
	<path class="st14" d="M2187.5,1831.1v344.6c0,7.7-3.1,15.1-8.5,20.5c-5.4,5.4-12.8,8.5-20.5,8.5h-497.4c-7.7,0-15-3.1-20.5-8.5
		c-5.4-5.4-8.5-12.8-8.5-20.5v-344.6c0-7.7,3.1-15,8.5-20.4c5.4-5.4,12.8-8.5,20.5-8.5h497.4c3.8,0,7.6,0.7,11.1,2.2
		c3.5,1.4,6.7,3.6,9.4,6.3c2.7,2.7,4.8,5.9,6.3,9.4C2186.8,1823.5,2187.5,1827.3,2187.5,1831.1z"/>
	<path class="st10" d="M2114.5,1802.2h-22v402.5h22V1802.2L2114.5,1802.2z M1727.2,1802.2h-22v402.5h22V1802.2L1727.2,1802.2z"/>
	<path class="st9" d="M1943.1,1619.7c0,0,35.5,80.3,31.6,98.2c-3.9,17.9-28-15.4-28-15.4L1943.1,1619.7z"/>
	<path class="st10" d="M2001.1,1705.7h-200.3v36.8h200.3L2001.1,1705.7L2001.1,1705.7z"/>
	<path class="st15" d="M2001.1,1705.7h-200.3v36.8h200.3L2001.1,1705.7L2001.1,1705.7z"/>
	<path class="st9" d="M1870,1607.5l-27.7,81.8c-5.6,23.3,69.9,57.5,99,37.3c23-15.8,3.2-110.7,3.2-110.7
		c-10.8-7.3-23.2-11.9-36.2-13.4C1895.3,1601.1,1882.2,1602.8,1870,1607.5z"/>
	<path class="st9" d="M1842.3,1689.3c-5.8,26.1-2.4,77.1,39.3,82.5c9.1,1.5,18.3,1.7,27.5,0.6c8.2,3.4,17.3,4.2,26,2.2
		c20.9-6.6,13.2-59.3,13.2-59.3L1842.3,1689.3L1842.3,1689.3z"/>
	<path class="st4" d="M2354.4,652c0,0-59.3-12.7-72.2,36.6v162.8l34.1,42.6l-26.9,26.8l-0.8,209.3l63,21.8
		c1.3-58.2,10.9-162.7-3.7-317.3C2342.5,773.9,2344.7,712.5,2354.4,652L2354.4,652z"/>
	<path class="st2" d="M2354.4,652c0,0-59.3-12.7-72.2,36.6v162.8l34.1,42.6l-26.9,26.8l-0.8,209.3l63,21.8
		c1.3-58.2,10.9-162.7-3.7-317.3C2342.5,773.9,2344.7,712.5,2354.4,652L2354.4,652z"/>
	<path class="st4" d="M2465.8,684.7c0,0,27.8,28.2,41.7,92.8c13.9,64.6,41.9,346.9,41,382.8l62.4-46.8l-25.3-224.2l-37-22.9
		l31.1-40.8c0,0-28.6-103-47-129.2c-18.4-26.3-61.1-32.7-61.1-32.7L2465.8,684.7L2465.8,684.7z"/>
	<path class="st2" d="M2465.8,684.7c0,0,27.8,28.2,41.7,92.8c13.9,64.6,41.9,346.9,41,382.8l62.4-46.8l-25.3-224.2l-37-22.9
		l31.1-40.8c0,0-28.6-103-47-129.2c-18.4-26.3-61.1-32.7-61.1-32.7L2465.8,684.7L2465.8,684.7z"/>
	<path class="st10" d="M2525.7,553.9c0,0.6,6.1,1.1,15.9,1.6c1.4,0.2,2.8,0.2,4.2,0c1.9-0.3,3.5-1.5,4.4-3.2c1.1-3.2,1-6.6-0.3-9.7
		l-5-19.6c-7.3-27.9-14.2-50.3-15.3-50c-1.1,0.3,3.9,23.1,11.2,51l5.3,19.4c1.1,2.3,1.4,5,0.9,7.5c-0.6,1.7-3,1.9-5.5,1.9
		C2531.8,553,2525.7,553.4,2525.7,553.9L2525.7,553.9z"/>
</g>
</svg>
